<?xml version="1.0" standalone="no"?><!DOCTYPE svg PUBLIC "-//W3C//DTD SVG 1.1//EN" "http://www.w3.org/Graphics/SVG/1.1/DTD/svg11.dtd"><svg t="1611919314156" class="icon" viewBox="0 0 1024 1024" version="1.1" xmlns="http://www.w3.org/2000/svg" p-id="2017" xmlns:xlink="http://www.w3.org/1999/xlink" width="200" height="200"><defs><style type="text/css"></style></defs><path d="M763.2 365.3l188.2-187.8c27.2-27.1 27.2-71.1 0.1-98.3-27.1-27.1-71-27.1-98.2-0.1l-188.4 188c-2.5 0.3-4.3 0.5-6.8 0.8-72.4-42-156.3-41.8-220.8 19.8-1.9 1.8-2 5.1-0.1 7l298.4 298.4c1.9 1.9 5.2 1.8 7-0.1 61.5-64.6 61.7-148.4 19.8-220.8 0.2-2.6 0.5-4.3 0.8-6.9z" fill="#ffffff" p-id="2018"></path><path d="M320.3 213.7m-59.4 0a59.4 59.4 0 1 0 118.8 0 59.4 59.4 0 1 0-118.8 0Z" fill="#ffffff" p-id="2019"></path><path d="M695.1 870.1m-74.4 0a74.4 74.4 0 1 0 148.8 0 74.4 74.4 0 1 0-148.8 0Z" fill="#ffffff" p-id="2020"></path><path d="M826.9 791.5m-40.5 0a40.5 40.5 0 1 0 81 0 40.5 40.5 0 1 0-81 0Z" fill="#ffffff" p-id="2021"></path><path d="M384.2 342.6L681.7 640c2.2 2.2 2.7 5.5 1.1 8.2-16.1 25.7-97.2 161.9-118.9 341.9-0.2 1.5-1.8 2.3-3.1 1.6l-101-60.9c-0.9-0.6-1.3-1.7-0.8-2.7 9.5-19.9 100.4-210.3 91.1-201-9.8 9.8-72.7 76.6-119.8 144.9l-27.1 37.3s-106.3-71.5-139.1-116c-0.5-0.7-0.6-1.3 0-1.9 21.6-26.2 134-172.3 134-172.3L207 733.7c-0.9 0.5-1.9 0.4-2.6-0.4-9.3-10.3-73.1-80.8-91.5-113.9-0.4-0.7-0.4-1.3 0.3-1.9 18.2-14.7 121.1-101.9 121.1-101.9L89.4 566.9c-1 0.3-2.1-0.1-2.6-1L33.2 465.3c-0.7-1.2-0.2-2.7 1.2-3C59.9 457.2 272.7 413 376 341.7c2.6-1.8 6-1.4 8.2 0.9z" fill="#ffffff" p-id="2022"></path></svg>