<?xml version="1.0" encoding="utf-8"?>
<!-- Generator: Adobe Illustrator 23.0.1, SVG Export Plug-In . SVG Version: 6.00 Build 0)  -->
<svg version="1.1" id="图层_1" xmlns="http://www.w3.org/2000/svg" xmlns:xlink="http://www.w3.org/1999/xlink" x="0px" y="0px"
	 viewBox="0 0 200.8 200" style="enable-background:new 0 0 200.8 200;" xml:space="preserve">
<style type="text/css">
	.st0{fill:#CCCCCC;}
</style>
<path class="st0" d="M61.9,164.3c0-1.2,0.6-1.8,1.8-1.8c1.2,0,1.8,0.6,1.8,1.8c0,1.2-0.6,1.8-1.8,1.8
	C62.5,166.1,61.9,165.5,61.9,164.3z M53.7,162.3c0-1.2,0.6-1.8,1.8-1.8c1.3,0,2,0.6,2,1.8c0,1.3-0.7,2-2,2
	C54.3,164.3,53.7,163.6,53.7,162.3z M99.6,0c13.8,0,26.8,2.6,39,7.9s22.8,12.4,31.8,21.5c9,9,16.2,19.7,21.5,31.8s7.9,25.2,7.9,39
	c0,10.8-1.6,21.1-4.9,31c-3.3,9.9-7.8,19-13.6,27.1c-5.8,8.2-12.7,15.4-20.9,21.6c-8.1,6.2-17,11-26.5,14.5c-1.5,0.3-3.1,0.3-5,0.2
	c-1.9-0.1-3-1.3-3.4-3.6c-0.3-1.6-0.5-3.7-0.7-6.4c-0.2-2.7-0.3-5.4-0.4-8.2c-0.1-2.8-0.1-5.5-0.2-8s-0.1-4.4-0.1-5.6
	c0-1.2-0.2-2.7-0.7-4.6c-0.5-1.9-1-3.7-1.6-5.4c-0.6-1.7-1.2-3.3-1.8-4.7c-0.6-1.4-1-2.3-1.3-2.7c-0.3-0.3,0.7-0.6,2.8-0.9
	c2.1-0.3,4.8-1,8.1-1.9c3.3-0.9,6.8-2.3,10.7-4c3.9-1.7,7.5-4,10.8-6.9s6.1-6.4,8.3-10.6c2.2-4.2,3.3-9.3,3.3-15.3
	c0-9-0.5-16.1-1.6-21.2c-1.1-5.1-2.2-8.8-3.4-11.4c-1.5-2.9-3.1-4.8-5-5.6c0.8-4.4,1.4-8.4,1.8-12c0.3-3.1,0.3-6,0.1-8.8
	c-0.2-2.8-1-4.6-2.5-5.4c-1.5-0.7-3.6-0.5-6.5,0.4c-2.9,0.9-5.8,2.1-8.9,3.6c-3.5,1.7-7.2,3.9-11.2,6.4c-2-0.7-4.2-1.3-6.6-1.8
	c-2.1-0.5-4.7-1-7.6-1.4s-6.2-0.6-9.8-0.6c-3.6,0-7,0.2-10.3,0.6c-3.3,0.4-6.2,0.8-8.7,1.2c-2.9,0.5-5.7,1.1-8.2,1.8
	c-4-2.3-7.7-4.2-11.2-5.8c-3.1-1.5-6.1-2.7-9-3.6c-2.9-0.9-5.1-1.1-6.4-0.6c-1.5,0.7-2.4,2.4-2.7,5.1c-0.3,2.7-0.4,5.7-0.3,8.9
	c0.1,3.7,0.5,7.9,1,12.4c-1.9,2-3.5,4.4-5,7.2c-1.3,2.4-2.5,5.3-3.5,8.8c-1,3.5-1.5,7.3-1.5,11.6c0,6.1,0.6,11.5,1.9,16.2
	c1.3,4.7,3,8.7,5.1,12.1c2.1,3.4,4.6,6.3,7.3,8.6c2.7,2.3,5.5,4.2,8.3,5.7c6.7,3.5,14.2,5.5,22.8,6c-1.1,1.2-2,2.3-2.8,3.4
	c-0.7,0.9-1.3,1.8-1.8,2.7c-0.5,0.9-0.8,1.5-0.8,1.9c0,0.4,0,0.9-0.1,1.5c-0.1,0.6-0.2,1.2-0.3,1.9l-0.4,2c-1.3,0.5-2.7,1-4.2,1.4
	c-1.2,0.4-2.5,0.7-4,1c-1.5,0.3-2.9,0.4-4.4,0.4c-1.5,0-3.3-0.8-5.4-2.3c-2.1-1.5-4.3-3.3-6.5-5.3s-4.2-4-6-5.9
	c-1.8-1.9-3.1-3.3-3.9-4.1c-0.8-0.7-1.9-1.2-3.2-1.7c-1.3-0.5-2.7-0.8-4-1.1c-1.3-0.3-2.5-0.4-3.6-0.5c-1.1-0.1-1.8,0-2.2,0.1
	c-0.8,0.4-1.4,1-1.8,1.7c-0.4,0.7-0.1,1.3,1,1.7c0.5,0.3,1.3,0.8,2.3,1.5c1,0.7,2,1.6,3.1,2.6c1.1,1,2.1,2,3,3c0.9,1,1.6,1.8,2,2.5
	s1,2.1,1.8,4.4c0.8,2.3,2.1,4.6,3.9,7c1.8,2.4,4.2,4.5,7.2,6.4c3,1.9,7,2.8,12.1,2.8c3.5,0,6.1,0,7.9-0.1c1.8-0.1,3.2-0.2,4.1-0.3
	v15.4c0,0.8-0.1,1.7-0.3,2.7c-0.2,1-0.6,1.9-1.1,2.6c-0.5,0.7-1.3,1.3-2.2,1.6s-2.1,0.3-3.6-0.1c-0.3-0.1-0.7-0.2-1.2-0.2
	c-9.7-3.5-18.6-8.3-26.7-14.5S24,166.9,18.1,158.7S7.5,141.4,4.2,131.4s-5-20.3-5-31.2c0-13.8,2.6-26.8,7.9-39s12.4-22.8,21.5-31.8
	S48.2,13.1,60.5,7.9S85.8,0,99.6,0L99.6,0z M74.3,171.7c0.5,0.1,0.9,0.3,1.2,0.4c0.7,0.4,0.3,0.7-1.2,0.8V171.7z M70.3,162.9
	c0-1.3,0.6-2,1.8-2c1.2,0,1.8,0.7,1.8,2c0,1.2-0.6,1.8-1.8,1.8C70.9,164.7,70.3,164.1,70.3,162.9z M34.7,142.9
	c0-0.8,0.5-1.2,1.4-1.2c0.9,0,1.4,0.4,1.4,1.2c0,0.9-0.5,1.4-1.4,1.4C35.2,144.3,34.7,143.8,34.7,142.9z M48.1,158.1
	c0-1.2,0.6-1.8,1.8-1.8s1.8,0.6,1.8,1.8c0,1.3-0.6,2-1.8,2C48.7,160.1,48.1,159.4,48.1,158.1z M40.5,145.9c0.9,0,1.4,0.5,1.4,1.4
	c0,0.9-0.5,1.4-1.4,1.4c-0.9,0-1.4-0.5-1.4-1.4C39.1,146.4,39.6,145.9,40.5,145.9z M42.5,152.5c0-1.2,0.6-1.8,1.8-1.8
	c1.2,0,1.8,0.6,1.8,1.8c0,1.3-0.6,2-1.8,2C43.1,154.5,42.5,153.8,42.5,152.5z"/>
</svg>
